<svg width="100%" height="100%" viewBox="0 0 1054 1057" version="1.1" xmlns="http://www.w3.org/2000/svg" xmlns:xlink="http://www.w3.org/1999/xlink" xml:space="preserve" xmlns:serif="http://www.serif.com/" style="fill-rule:evenodd;clip-rule:evenodd;stroke-linejoin:round;stroke-miterlimit:2;">
    <path d="M222.65,456.75C223.75,455.65 223.06,454.63 222.87,453.67C220.77,442.54 218.94,431.36 217.79,420.09C215.07,393.33 215.42,366.71 221.48,340.36C224.5,326.682 229.482,313.513 236.27,301.26C245.21,285.41 257,272.21 272.51,262.51C285.646,254.363 300.379,249.129 315.71,247.16C337.78,244.16 359.48,246.45 380.93,251.94C398.392,256.577 415.349,262.942 431.55,270.94C433.12,271.71 434.73,272.4 436.27,273.1C437.57,271.64 436.27,270.97 435.71,270.24C430.13,262.49 424.19,254.98 418.92,247.02C403.75,224.07 392.73,199.28 386.73,172.35C383.103,156.442 381.88,140.08 383.1,123.81C385.54,92.87 396.75,65.75 419.1,43.81C435.41,27.81 455,17.55 476.93,11.66C496.93,6.28 517.37,4.96 538,6.66C571.86,9.52 603.38,20.07 633.27,35.86C639.52,39.16 645.59,42.86 651.65,46.47C654.513,48.225 657.524,49.724 660.65,50.95C719.566,73.366 773.656,106.842 820,149.57C899.333,222.483 952.043,311.27 978.13,415.93C984.168,440.157 988.354,464.808 990.65,489.67C991.87,502.72 992.51,515.78 992.86,528.88C993.313,546.753 992.768,564.637 991.23,582.45C986.395,641.891 970.969,699.99 945.68,754C900.788,850.886 825.004,930.199 730.26,979.45C659.249,1016.38 580.072,1034.85 500.05,1033.15C429.888,1032.05 360.783,1015.82 297.46,985.59C195.06,937 117,862.42 62,763.45C60,759.76 57.57,756.2 56.68,751.93C56.278,750.761 55.641,749.685 54.81,748.77C30.2,716 15.56,678.89 7.08,639.13C3.219,620.762 0.938,602.097 0.26,583.34C-0.95,552.69 2,522.53 10.25,493C14.836,476.047 21.609,459.764 30.4,444.56C37.685,431.765 46.985,420.227 57.94,410.39C70.24,399.55 84.15,391.79 100.3,388.31C116.45,384.83 131.98,386.36 147.3,391.7C163.3,397.26 177.08,406.37 189.55,417.64C200.898,428.078 210.926,439.866 219.41,452.74C220.4,454.15 221,455.88 222.65,456.75Z" style="fill:rgb(127,127,127);fill-rule:nonzero;"/>
    <path d="M512.25,940.73C480.09,940.36 448.77,935.39 418.89,923.22C359.59,899.06 318.89,856.6 296,796.94C288.8,778.19 284.44,758.73 281.92,738.8C279.672,720.694 279.15,702.415 280.36,684.21C282.341,654.516 288.156,625.202 297.66,597C314.74,545.81 341.24,500 376.08,458.89C415.18,412.79 461.66,376.06 516.17,349.71C543.239,336.53 571.876,326.849 601.39,320.9C625.526,315.994 650.182,314.137 674.78,315.37C710.58,317.29 744.68,325.78 776.42,342.79C820.67,366.51 852.23,401.93 872.32,447.79C881.9,469.66 887.71,492.56 890.73,516.23C893.005,534.689 893.524,553.323 892.28,571.88C890.211,602.448 884.063,632.602 874,661.54C857.49,709.81 832.42,753.29 800,792.54C763.81,836.28 720.93,872 670.75,898.66C640.793,914.771 608.704,926.555 575.44,933.66C560.741,936.852 545.816,938.898 530.8,939.78C524.62,940.11 518.44,940.41 512.25,940.73Z" style="fill:rgb(254,49,50);fill-rule:nonzero;"/>
    <path d="M168.43,431.43C168.21,423.47 169.419,415.534 172,408C174,402.27 176.79,397 181.23,392.71C187.68,386.55 195.31,383.91 204.11,386.01C209.098,387.213 213.812,389.355 218,392.32C222.185,395.291 225.99,398.764 229.33,402.66C236.116,410.617 241.45,419.706 245.09,429.51C250.353,443.075 252.559,457.635 251.55,472.15C251.142,478.687 249.697,485.117 247.27,491.2C245.746,495.172 243.54,498.848 240.75,502.06C233.137,510.54 223.857,513.153 212.91,509.9C207.667,508.235 202.82,505.512 198.67,501.9C192.573,496.757 187.381,490.629 183.31,483.77C173.665,468.011 168.518,449.906 168.43,431.43Z" style="fill:white;fill-rule:nonzero;"/>
    <path d="M512.35,204.6C490.68,203.75 472.77,195.14 458.94,178.39C455.06,173.766 452.344,168.279 451.02,162.39C448.19,149.74 453.69,138.61 465.49,133.19C471,130.723 477.022,129.612 483.05,129.95C498.46,130.58 512.55,135.14 525,144.39C530.588,148.456 535.418,153.472 539.27,159.21C542.415,163.725 544.516,168.883 545.42,174.31C546.91,184.53 543.55,192.76 535.04,198.7C529.68,202.44 523.54,204.03 517.12,204.6C515.54,204.72 513.94,204.6 512.35,204.6Z" style="fill:white;fill-rule:nonzero;"/>
    <path d="M71.41,405.28C71.486,393.909 73.474,382.632 77.29,371.92C79.29,366.39 81.96,361.22 86.23,357.04C87.331,355.892 88.518,354.828 89.78,353.86C95.07,350.03 100.78,350.2 105.92,354.27C109.045,356.909 111.551,360.204 113.26,363.92C116.469,370.446 118.577,377.457 119.5,384.67C121.692,399.248 120.706,414.129 116.61,428.29C115.123,433.566 112.919,438.613 110.06,443.29C108.238,446.347 105.865,449.039 103.06,451.23C97.32,455.58 91.06,455.4 85.6,450.72C82.571,447.975 80.149,444.626 78.49,440.89C75.678,434.977 73.825,428.655 73,422.16C72.31,416.56 71.94,410.91 71.41,405.28Z" style="fill:white;fill-rule:nonzero;"/>
    <path d="M347.44,235.86C342.475,235.752 337.565,234.784 332.93,233C320.409,228.342 309.698,219.801 302.37,208.63C298.768,203.378 296.499,197.326 295.76,191C294.46,179.15 301.27,169.79 312.91,167.4C319.71,166 326.34,166.88 332.77,168.95C346.231,173.148 357.82,181.901 365.54,193.7C368.924,198.685 371.165,204.358 372.1,210.31C374.16,223.62 366.1,234.12 352.73,235.56C351,235.7 349.2,235.75 347.44,235.86Z" style="fill:white;fill-rule:nonzero;"/>
    <path d="M382.11,352.77C379.036,352.409 375.984,351.875 372.97,351.17C359.15,347.28 348.11,339.45 340.27,327.32C337.395,323.052 335.647,318.125 335.19,313C334.46,303.37 339.12,296.63 348.44,293.91C355.3,291.91 362.12,292.46 368.84,294.48C380.139,297.813 390.122,304.589 397.39,313.86C401.255,318.513 403.89,324.063 405.05,330C407.14,341.3 400.69,350.48 389.28,352.26C387.19,352.54 385.05,352.55 382.11,352.77Z" style="fill:white;fill-rule:nonzero;"/>
    <path d="M185.84,289.87C185.93,293.083 185.273,296.274 183.92,299.19C181.53,304.13 177.33,306.59 171.92,305.88C169.645,305.59 167.437,304.914 165.39,303.88C163.023,302.693 160.838,301.174 158.9,299.37C149.58,290.37 144.29,279.57 144.19,266.48C144.215,264.37 144.518,262.272 145.09,260.24C147.43,251.24 155.59,250.04 161.29,251.89C163.146,252.465 164.903,253.322 166.5,254.43C178.52,263.2 184.65,275.21 185.84,289.87Z" style="fill:white;fill-rule:nonzero;"/>
    <path d="M128.59,535.59C128.83,541.261 127.985,546.926 126.1,552.28C125.097,555.12 123.715,557.811 121.99,560.28C117.65,566.19 111.56,566.28 106.88,560.62C105.138,558.398 103.709,555.949 102.63,553.34C99.73,546.74 98.89,539.69 99.01,532.59C98.996,526.911 99.96,521.272 101.86,515.92C102.909,512.715 104.67,509.789 107.01,507.36C111.3,503.22 115.81,503.2 120.09,507.36C122.201,509.519 123.845,512.089 124.92,514.91C127.563,521.474 128.812,528.517 128.59,535.59Z" style="fill:white;fill-rule:nonzero;"/>
    <path d="M460.5,105.29C454.18,105.06 449.2,103.44 444.79,100.21C441.883,98.151 439.654,95.271 438.39,91.94C436.22,86.17 438.07,80.34 443.39,77.25C445.53,76.018 447.842,75.111 450.25,74.56C458.6,72.62 469.3,76.84 474.25,83.81C479.79,91.68 477,100.6 468,104C466.839,104.418 465.64,104.723 464.42,104.91C462.81,105.14 461.22,105.22 460.5,105.29Z" style="fill:white;fill-rule:nonzero;"/>
    <path d="M333,127.43C332.95,120.62 336,117.19 341.55,116.64C342.779,116.5 344.021,116.5 345.25,116.64C353.91,117.81 362.62,125.64 364.71,134.15C366.39,141 362.63,146.23 355.56,146.5C353.264,146.591 350.971,146.252 348.8,145.5C342.501,143.396 337.355,138.758 334.61,132.71C333.914,131.002 333.375,129.235 333,127.43Z" style="fill:white;fill-rule:nonzero;"/>
    <path d="M22.06,704.19C22.72,704.682 23.339,705.227 23.91,705.82C26.51,709.17 29.14,712.51 31.64,715.93C38.03,724.69 44.93,732.93 53.91,739.22C58.471,742.583 63.462,745.321 68.75,747.36C81.37,751.89 93.94,752.13 106.46,746.66C118.645,741.271 129.402,733.106 137.87,722.82C145.702,713.429 152.455,703.188 158,692.29C163.963,680.63 169.186,668.606 173.64,656.29C181.09,635.94 185.95,614.96 189.74,593.69C190.613,588.817 191.493,583.95 192.38,579.09C192.54,578.24 192.8,577.41 193.23,575.73C193.97,577.81 194.5,579.08 194.88,580.39C200.516,599.949 207.858,618.975 216.82,637.25C225.179,654.636 234.715,671.432 245.36,687.52C257.172,704.967 270.433,721.388 285,736.61C294.366,746.509 304.443,755.71 315.15,764.14C327.02,773.41 339.33,782.08 352.65,789.14C360.592,793.41 368.78,797.206 377.17,800.51C391.17,805.92 405.64,810.12 420.66,811.97C435.15,813.75 449.66,813.88 463.98,810.9C480.154,807.651 495.564,801.359 509.39,792.36C522.27,783.9 533.01,773.3 542.39,761.2C556.39,743.2 565.48,722.76 571.84,701.03C576.545,684.516 579.498,667.552 580.65,650.42C581.615,637.709 581.755,624.949 581.07,612.22C579.243,578.419 572.765,545.032 561.82,513C558.23,502.46 554,492.14 550.07,481.72C549.52,480.27 548.99,478.81 548.29,476.93C550.05,476.81 550.9,477.72 551.81,478.36C559.319,483.682 567.188,488.476 575.36,492.71C592.51,501.51 610.57,507.57 629.84,509.18C665.93,512.18 694.84,499.03 716.39,469.85C726.27,456.45 732.8,441.39 737.44,425.49C741.377,411.702 743.975,397.567 745.2,383.28C746.2,372.36 746.92,361.42 746.97,350.46C746.97,342.69 746.45,334.9 745.75,327.16C743.341,301.252 738.537,275.622 731.4,250.6C723.326,222.182 712.737,194.54 699.76,168C686.95,141.343 671.585,115.991 653.88,92.3C637.63,70.74 619.58,50.87 598.88,33.43C584.626,21.229 568.989,10.744 552.29,2.19C551.54,1.82 550.84,1.35 550.17,0.95C550.53,-0.36 551.36,0.06 551.94,0.09C565.72,0.88 579.48,2 593.14,4C603.98,5.56 614.89,6.73 625.58,9.3C633.48,11.19 641.51,12.54 649.42,14.41C656.81,16.15 664.14,18.16 671.42,20.25C678.42,22.25 685.33,24.32 692.18,26.67C700.04,29.36 707.78,32.39 715.57,35.27C728.01,39.87 740.05,45.4 752.08,50.96C758.33,53.85 764.39,57.16 770.48,60.39C776.73,63.7 782.95,67.07 789.09,70.57C794,73.36 798.81,76.34 803.59,79.34C809.45,83 815.31,86.63 821,90.54C831.18,97.54 841.33,104.65 850.9,112.54C859.49,119.61 868.1,126.67 876.55,133.91C887.554,143.347 897.986,153.432 907.79,164.11C914.85,171.78 921.85,179.51 928.7,187.37C937.18,197.1 945.13,207.28 952.6,217.81C958.43,226.02 964.34,234.19 969.73,242.69C977.47,254.92 985.03,267.29 991.55,280.25C994.73,286.57 998.22,292.74 1001.25,299.12C1004.73,306.46 1007.94,313.93 1011.12,321.41C1014.12,328.57 1017.12,335.74 1019.91,343.02C1023.97,353.77 1027.71,364.63 1030.82,375.7C1033.36,384.7 1035.99,393.7 1038.37,402.77C1039.81,408.23 1040.96,413.77 1042.07,419.33C1045.4,435.997 1048.07,452.76 1050.07,469.62C1053.07,496.194 1054.05,522.958 1053,549.68C1052.34,568.97 1050.14,588.13 1047.46,607.25C1045.32,622.51 1042.15,637.57 1038.67,652.54C1036,664.06 1032.44,675.38 1029.09,686.74C1024.88,700.99 1019.59,714.88 1014.09,728.67C1011.47,735.23 1008.49,741.67 1005.53,748.05C1002.53,754.63 999.4,761.19 996.12,767.65C992.59,774.58 988.88,781.42 985.12,788.25C978.12,800.96 970.43,813.25 962.31,825.25C955.37,835.48 947.96,845.4 940.31,855.14C931.003,866.933 921.233,878.327 911,889.32C901.63,899.43 891.87,909.19 881.56,918.32C872.84,926.07 864.07,933.78 854.99,941.09C845.35,948.843 835.413,956.213 825.18,963.2C816.57,969.07 807.88,974.81 798.96,980.2C790.34,985.4 781.68,990.54 772.67,995.06C766.35,998.23 760.16,1001.67 753.8,1004.75C747.44,1007.83 740.71,1010.96 734.03,1013.75C724.4,1017.75 714.72,1021.63 704.94,1025.25C692.18,1029.97 679.22,1034.16 666.08,1037.66C652.42,1041.31 638.653,1044.51 624.78,1047.28C609.48,1050.28 594.07,1052.36 578.62,1054.13C556.616,1056.48 534.482,1057.38 512.36,1056.82C489.54,1056.26 466.778,1054.25 444.21,1050.82C431.07,1048.9 418.08,1046.26 405.21,1043.27C389.21,1039.56 373.21,1035.63 357.62,1030.42C349.413,1027.68 341.287,1024.7 333.24,1021.49C321.42,1016.8 309.64,1011.97 297.98,1006.9C291.18,1003.9 284.6,1000.51 277.98,997.12C271.98,994.05 266.12,990.81 260.24,987.55C255.76,985.07 251.327,982.51 246.94,979.87C240.6,976.03 234.27,972.17 228.07,968.12C221.57,963.86 215.163,959.467 208.85,954.94C202.68,950.53 196.61,945.94 190.6,941.32C184.59,936.7 178.94,932.13 173.24,927.37C164.84,920.337 156.723,913.003 148.89,905.37C139.69,896.37 130.33,887.45 122.07,877.49C120.61,875.73 118.83,874.23 117.32,872.49C113.5,868.09 109.723,863.653 105.99,859.18C103.39,856.05 100.99,852.75 98.36,849.66C92.126,842.175 86.368,834.306 81.12,826.1C79.86,824.19 78.26,822.5 77.02,820.58C72.83,814.04 68.74,807.43 64.58,800.87C62.04,796.87 59.27,792.93 56.92,788.8C53.33,782.5 49.92,776.07 46.59,769.66C42.07,761.06 37.46,752.5 33.74,743.5C31.74,738.77 29.74,734.07 27.87,729.31C24.98,722.04 23.45,714.41 22.08,706.74C22.01,705.892 22.003,705.039 22.06,704.19Z" style="fill:white;fill-rule:nonzero;"/>
</svg>
