<?xml version="1.0" encoding="UTF-8" standalone="no"?>
<!DOCTYPE svg PUBLIC "-//W3C//DTD SVG 1.1//EN" "http://www.w3.org/Graphics/SVG/1.1/DTD/svg11.dtd">
<svg width="100%" height="100%" viewBox="0 0 1080 1080" version="1.1" xmlns="http://www.w3.org/2000/svg" xmlns:xlink="http://www.w3.org/1999/xlink" xml:space="preserve" xmlns:serif="http://www.serif.com/" style="fill-rule:evenodd;clip-rule:evenodd;stroke-linecap:round;stroke-linejoin:round;stroke-miterlimit:1.5;">
    <g>
        <clipPath id="_clip1">
            <circle cx="540" cy="540" r="540"/>
        </clipPath>
        <g clip-path="url(#_clip1)">
            <rect x="0" y="0" width="1080" height="1080" style="fill:#7289da;"/>
            <path id="Portal" d="M370.899,747.119C240.701,730.822 180.872,697.498 180.872,652.308C180.872,592.439 341.792,543.832 540,543.832C738.208,543.832 899.128,592.439 899.128,652.308C899.128,704.958 778.21,752.583 613.394,762.415C532.345,769.086 443.862,764.484 412.824,762.257C362.762,758.686 281.42,748.301 252.518,730.267C270.747,735.003 305.168,741.176 334.044,745.728C353.465,748.459 361.202,748.849 370.899,747.119ZM844.505,617.929C844.505,617.929 881.264,637.223 848.274,669.99C815.284,702.758 726.76,723.083 635.212,729.628C543.664,736.173 434.09,731.215 407.219,725.922C380.348,720.63 291.044,708.7 248.55,674.39C210.726,643.852 276.907,619.476 282.242,616.891C287.577,614.306 367.183,582.468 517.544,584.517C521.81,584.575 516.939,583.002 516.939,583.002C516.939,583.002 401.753,580.895 333.314,588.733C329.951,583.236 444.849,563.877 541.076,566.609C637.304,569.34 726.608,586.054 744.488,592.655C762.601,598.441 795.359,610.288 805.729,631.885C811.104,650.911 798.221,662.322 775.26,677.131C744.779,695.656 692.146,707.618 686.447,709.71C680.749,711.802 780.721,695.563 830.096,659.946C854.208,637.15 844.505,617.929 844.505,617.929Z" style="fill:#fff;"/>
            <path d="M370.053,747.139C312.817,739.919 269.236,729.397 238.408,716.016C199.365,699.068 180.771,677.527 180.774,652.308C180.775,638.558 189.241,625.398 204.695,613.286C226.161,596.462 261.115,581.655 305.547,570.078C368.482,553.681 450.435,543.762 540,543.77C629.564,543.774 711.513,553.704 774.445,570.109C818.869,581.689 853.817,596.496 875.278,613.32C890.718,625.423 899.18,638.57 899.18,652.308C899.181,663.929 893.299,675.307 882.357,686.087C866.208,701.999 839.033,716.612 803.491,728.794C753.971,745.767 688.207,758.02 613.399,762.489C579.701,765.265 544.718,766.093 513.113,765.954C468.698,765.757 430.953,763.649 412.818,762.35C385.061,760.373 347.69,756.303 314.969,749.995C288.655,744.923 265.347,738.401 252.459,730.361C252.413,730.332 252.394,730.274 252.416,730.224C252.438,730.173 252.493,730.146 252.546,730.16C260.745,732.289 272.219,734.708 284.992,737.14C300.614,740.114 318.177,743.107 334.061,745.609C343.78,746.974 350.571,747.753 356.146,747.974C361.382,748.181 365.544,747.895 370.053,747.139ZM253.206,730.559C266.197,738.415 289.149,744.801 315.009,749.791C347.72,756.104 385.081,760.181 412.831,762.164C430.964,763.467 468.704,765.582 513.113,765.787C544.715,765.933 579.694,765.112 613.388,762.342L613.39,762.342C688.184,757.885 753.939,745.645 803.453,728.682C838.976,716.512 866.14,701.912 882.281,686.011C893.201,675.254 899.075,663.904 899.076,652.308C899.076,638.597 890.625,625.479 875.216,613.4C853.763,596.582 818.827,581.78 774.419,570.207C711.495,553.807 629.553,543.889 540,543.894C450.449,543.901 368.51,553.83 305.588,570.237C261.188,581.814 226.259,596.616 204.811,613.433C189.416,625.504 180.969,638.609 180.971,652.308C180.974,677.462 199.549,698.922 238.495,715.816C269.459,729.248 313.295,739.789 370.914,746.995C370.976,747.003 371.022,747.054 371.024,747.116C371.025,747.178 370.982,747.231 370.921,747.242C366.07,748.107 361.709,748.442 356.136,748.22C350.555,747.998 343.756,747.217 334.027,745.848L334.025,745.848C318.138,743.341 300.573,740.344 284.949,737.365C272.539,735 261.353,732.646 253.206,730.559ZM686.552,709.784C686.633,709.782 686.729,709.777 686.84,709.769C688.037,709.687 690.892,709.281 695.039,708.549C710.303,705.852 743.057,698.734 775.124,687.076C795.172,679.786 814.953,670.723 830.019,659.853L830.022,659.851C837.185,653.076 841.356,646.618 843.681,640.889C849.148,627.416 844.394,617.985 844.394,617.985C844.369,617.937 844.379,617.878 844.418,617.84C844.457,617.802 844.515,617.793 844.564,617.818C844.564,617.818 861.435,626.682 862.119,642.593C862.446,650.203 859.073,659.433 848.357,670.074C832.491,685.83 803.793,698.713 768.091,708.568C729.523,719.213 682.779,726.328 635.219,729.723C597.902,732.387 557.591,733.14 521.106,732.739C468.074,732.155 423.125,729.133 407.205,725.996C390.175,722.64 348.07,716.616 308.695,703.921C285.931,696.581 264.08,687.011 248.51,674.439C235.059,663.577 234.737,653.491 240.15,644.884C249.977,629.259 278.772,618.508 282.217,616.839C285.901,615.054 325.005,599.32 398.368,590.428C431.247,586.443 471.007,583.831 517.545,584.466C518.261,584.476 518.718,584.44 518.982,584.373C519.142,584.331 519.226,584.287 519.243,584.224C519.252,584.19 519.235,584.154 519.205,584.115C519.151,584.043 519.051,583.967 518.924,583.888C518.301,583.502 517.036,583.086 516.93,583.052C516.184,583.039 462.386,582.075 406.666,583.967C380.951,584.841 354.827,586.323 333.32,588.787C333.299,588.789 333.279,588.779 333.268,588.761C333.116,588.514 333.177,588.238 333.457,587.941C334.213,587.142 336.619,586.156 340.437,585.057C352.968,581.45 380.742,576.568 415.099,572.686C452.962,568.408 498.82,565.345 541.078,566.541C577.357,567.569 612.652,570.583 643.507,574.294C694.502,580.428 733.371,588.464 744.515,592.576C755.494,596.082 771.849,601.814 785.344,610.591C794.137,616.309 801.715,623.319 805.81,631.846C805.813,631.851 805.814,631.856 805.816,631.861C808.308,640.68 806.889,647.868 802.371,654.516C797.121,662.24 787.677,669.234 775.311,677.211C775.311,677.212 775.31,677.212 775.309,677.213C765.388,683.244 753.12,688.581 740.886,693.108C715.678,702.437 690.616,708.329 686.552,709.784ZM844.776,618.221C845.563,620.05 848.81,628.907 843.908,640.981C841.571,646.737 837.38,653.227 830.178,660.033C830.174,660.037 830.17,660.04 830.166,660.043C815.08,670.923 795.275,679.995 775.201,687.289C743.117,698.946 710.347,706.061 695.075,708.756C690.917,709.49 688.055,709.896 686.854,709.978C686.542,709.999 686.337,709.997 686.244,709.977C686.148,709.955 686.116,709.898 686.111,709.86C686.106,709.828 686.111,709.787 686.149,709.747C686.181,709.714 686.266,709.665 686.411,709.612C690.256,708.201 715.462,702.3 740.818,692.922C753.039,688.402 765.296,683.073 775.209,677.05C787.55,669.092 796.978,662.119 802.218,654.412C806.706,647.812 808.116,640.674 805.645,631.917L805.643,631.912C801.561,623.417 794.008,616.435 785.249,610.737C771.769,601.966 755.43,596.239 744.463,592.735C744.462,592.734 744.461,592.734 744.459,592.733C733.322,588.621 694.467,580.582 643.489,574.443C612.639,570.727 577.349,567.708 541.075,566.676C498.823,565.474 452.97,568.53 415.112,572.803C380.763,576.68 352.995,581.558 340.467,585.163C337.448,586.032 335.315,586.826 334.192,587.515C333.833,587.735 333.578,587.943 333.433,588.14C333.292,588.331 333.258,588.509 333.344,588.674C354.847,586.214 380.959,584.736 406.662,583.864C462.775,581.961 516.94,582.952 516.94,582.952C516.945,582.952 516.95,582.953 516.955,582.954C516.955,582.954 518.319,583.395 518.977,583.803C519.117,583.889 519.225,583.975 519.285,584.055C519.337,584.123 519.355,584.189 519.34,584.249C519.318,584.333 519.22,584.415 519.007,584.47C518.738,584.539 518.273,584.577 517.544,584.567C471.011,583.933 431.255,586.545 398.381,590.532C325.04,599.426 285.95,615.158 282.267,616.943C278.827,618.61 250.065,629.342 240.252,644.949C234.869,653.51 235.207,663.538 248.589,674.341C264.149,686.903 285.987,696.462 308.737,703.793C348.107,716.481 390.206,722.497 407.234,725.849C423.151,728.982 468.089,731.996 521.108,732.569C557.588,732.964 597.894,732.204 635.205,729.533C682.75,726.129 729.478,719.008 768.033,708.358C803.686,698.509 832.348,685.645 848.19,669.906C858.836,659.33 862.203,650.166 861.876,642.603C861.251,628.135 847.123,619.55 844.776,618.221Z" style="fill:#006fb5;fill-opacity:0.71;"/>
            <g id="Character">
                <path d="M527.615,607.179C496.256,599.116 473.051,570.628 473.051,536.762C473.051,496.638 505.627,464.062 545.751,464.062C585.876,464.062 618.452,496.638 618.452,536.762C618.452,570.628 595.247,599.116 563.889,607.179C580.457,609.475 595.234,614.85 606.672,622.317L681.002,553.003C689.611,544.976 703.117,545.447 711.144,554.055C719.172,562.664 718.7,576.17 710.092,584.197L634.884,654.329C633.631,655.498 632.274,656.487 630.843,657.297C630.931,658.306 630.976,659.323 630.976,660.347C630.976,660.914 630.962,661.48 630.935,662.04C630.962,662.31 630.976,662.584 630.976,662.862L630.976,815.861C630.976,820.401 627.29,824.087 622.75,824.087L602.72,824.087C603.932,824.087 604.916,825.07 604.916,826.282L604.916,924.693C604.916,925.905 603.932,926.888 602.72,926.888L560.421,926.888C559.21,926.888 558.226,925.905 558.226,924.693L558.226,826.282C558.226,825.07 559.21,824.087 560.421,824.087L531.082,824.087C532.293,824.087 533.277,825.07 533.277,826.282L533.277,924.693C533.277,925.905 532.293,926.888 531.082,926.888L488.783,926.888C487.571,926.888 486.587,925.905 486.587,924.693L486.587,826.282C486.587,825.07 487.571,824.087 488.783,824.087L468.753,824.087C464.213,824.087 460.527,820.401 460.527,815.861L460.527,662.862C460.527,662.584 460.541,662.31 460.568,662.04C460.541,661.48 460.527,660.914 460.527,660.347C460.527,659.323 460.572,658.306 460.66,657.297C459.229,656.487 457.872,655.498 456.618,654.329L381.411,584.197C372.803,576.17 372.331,562.664 380.359,554.055C388.386,545.447 401.892,544.976 410.5,553.003L484.831,622.317C496.27,614.85 511.047,609.474 527.615,607.179Z" style="fill:#4e5d94;stroke:#4e5d94;stroke-width:1px;"/>
            </g>
            <g id="Trail" opacity="0.75">
                <path d="M375.212,225.181L375.212,510.835L392.266,510.835L392.266,225.181L375.212,225.181Z" style="fill:url(#_Linear2);"/>
                <path d="M699.237,225.181L699.237,510.835L716.291,510.835L716.291,225.181L699.237,225.181Z" style="fill:url(#_Linear3);"/>
                <path d="M596.913,118.593L596.913,404.247L613.967,404.247L613.967,118.593L596.913,118.593Z" style="fill:url(#_Linear4);"/>
                <path d="M477.536,118.593L477.536,404.247L494.59,404.247L494.59,118.593L477.536,118.593Z" style="fill:url(#_Linear5);"/>
            </g>
            <path d="M899.033,654.859L1080,654.859L1080,1080L-0,1080L-0,654.859L180.936,654.859C183.16,698.752 243.163,731.13 370.899,747.119C361.202,748.849 353.465,748.459 334.044,745.728C305.168,741.176 270.747,735.003 252.518,730.267C281.42,748.301 362.762,758.686 412.824,762.257C443.862,764.484 532.345,769.086 613.394,762.415C775.544,752.742 895.205,706.489 899.033,654.859Z" style="fill:#7289da;"/>
            <path id="Portal1" serif:id="Portal" d="M899.033,654.859C895.205,706.489 775.544,752.742 613.394,762.415C532.345,769.086 443.862,764.484 412.824,762.257C362.762,758.686 281.42,748.301 252.518,730.267C270.747,735.003 305.168,741.176 334.044,745.728C353.465,748.459 361.202,748.849 370.899,747.119C243.163,731.13 183.16,698.752 180.936,654.859L236.938,654.859C236.783,660.937 240.024,667.507 248.55,674.39C291.044,708.7 380.348,720.63 407.219,725.922C434.09,731.215 543.664,736.173 635.212,729.628C726.76,723.083 815.284,702.758 848.274,669.99C853.732,664.569 857.281,659.516 859.403,654.859L899.033,654.859ZM834.991,654.859C833.539,656.53 831.913,658.228 830.096,659.946C780.721,695.563 680.749,711.802 686.447,709.71C692.146,707.618 744.779,695.656 775.26,677.131C787.402,669.3 796.726,662.418 802.022,654.859L834.991,654.859Z" style="fill:#fff;"/>
        </g>
    </g>
    <defs>
        <linearGradient id="_Linear2" x1="0" y1="0" x2="1" y2="0" gradientUnits="userSpaceOnUse" gradientTransform="matrix(1.74913e-14,-285.654,17.054,1.04425e-15,383.739,510.835)"><stop offset="0" style="stop-color:#000;stop-opacity:1"/><stop offset="0.57" style="stop-color:#000;stop-opacity:0.31"/><stop offset="1" style="stop-color:#000;stop-opacity:0"/></linearGradient>
        <linearGradient id="_Linear3" x1="0" y1="0" x2="1" y2="0" gradientUnits="userSpaceOnUse" gradientTransform="matrix(1.74913e-14,-285.654,17.054,1.04425e-15,707.764,510.835)"><stop offset="0" style="stop-color:#000;stop-opacity:1"/><stop offset="0.57" style="stop-color:#000;stop-opacity:0.31"/><stop offset="1" style="stop-color:#000;stop-opacity:0"/></linearGradient>
        <linearGradient id="_Linear4" x1="0" y1="0" x2="1" y2="0" gradientUnits="userSpaceOnUse" gradientTransform="matrix(1.74913e-14,-285.654,17.054,1.04425e-15,605.44,404.247)"><stop offset="0" style="stop-color:#000;stop-opacity:1"/><stop offset="0.57" style="stop-color:#000;stop-opacity:0.31"/><stop offset="1" style="stop-color:#000;stop-opacity:0"/></linearGradient>
        <linearGradient id="_Linear5" x1="0" y1="0" x2="1" y2="0" gradientUnits="userSpaceOnUse" gradientTransform="matrix(1.74913e-14,-285.654,17.054,1.04425e-15,486.063,404.247)"><stop offset="0" style="stop-color:#000;stop-opacity:1"/><stop offset="0.57" style="stop-color:#000;stop-opacity:0.31"/><stop offset="1" style="stop-color:#000;stop-opacity:0"/></linearGradient>
    </defs>
</svg>
