<?xml version="1.0" encoding="UTF-8" standalone="no"?>
<!DOCTYPE svg PUBLIC "-//W3C//DTD SVG 1.1//EN" "http://www.w3.org/Graphics/SVG/1.1/DTD/svg11.dtd">
<svg width="100%" height="100%" viewBox="0 0 546 130" version="1.1" xmlns="http://www.w3.org/2000/svg" xmlns:xlink="http://www.w3.org/1999/xlink" xml:space="preserve" xmlns:serif="http://www.serif.com/" style="fill-rule:evenodd;clip-rule:evenodd;stroke-linejoin:round;stroke-miterlimit:2;">
    <g transform="matrix(1,0,0,1,149.76,100.07)">
        <g transform="matrix(100,0,0,100,0,0)">
            <path d="M0.382,-0.282L0.227,-0.282L0.227,-0L0.08,-0L0.08,-0.72L0.433,-0.72C0.483,-0.719 0.522,-0.713 0.549,-0.701C0.576,-0.69 0.599,-0.673 0.618,-0.651C0.634,-0.633 0.646,-0.612 0.655,-0.59C0.664,-0.568 0.669,-0.543 0.669,-0.515C0.669,-0.48 0.66,-0.447 0.643,-0.414C0.626,-0.381 0.597,-0.357 0.558,-0.344C0.591,-0.33 0.614,-0.311 0.628,-0.287C0.642,-0.262 0.649,-0.225 0.649,-0.174L0.649,-0.126C0.649,-0.093 0.65,-0.071 0.653,-0.059C0.657,-0.041 0.666,-0.027 0.68,-0.018L0.68,-0L0.515,-0C0.51,-0.016 0.507,-0.029 0.505,-0.039C0.501,-0.059 0.499,-0.079 0.499,-0.101L0.498,-0.167C0.497,-0.213 0.489,-0.244 0.472,-0.259C0.456,-0.275 0.426,-0.282 0.382,-0.282ZM0.473,-0.413C0.503,-0.427 0.518,-0.454 0.518,-0.494C0.518,-0.538 0.504,-0.567 0.475,-0.582C0.458,-0.59 0.434,-0.595 0.401,-0.595L0.227,-0.595L0.227,-0.401L0.397,-0.401C0.431,-0.401 0.456,-0.405 0.473,-0.413Z" style="fill:white;fill-rule:nonzero;"/>
        </g>
        <g transform="matrix(100,0,0,100,72.2168,0)">
            <path d="M0.599,-0.72L0.599,-0.592L0.384,-0.592L0.384,-0L0.232,-0L0.232,-0.592L0.016,-0.592L0.016,-0.72L0.599,-0.72Z" style="fill:white;fill-rule:nonzero;"/>
        </g>
        <g transform="matrix(100,0,0,100,133.301,0)">
            <path d="M0.405,-0L0.079,-0L0.079,-0.72L0.428,-0.72C0.516,-0.718 0.579,-0.693 0.616,-0.643C0.638,-0.612 0.649,-0.576 0.649,-0.533C0.649,-0.489 0.638,-0.454 0.616,-0.427C0.603,-0.412 0.585,-0.399 0.561,-0.386C0.598,-0.373 0.626,-0.352 0.644,-0.323C0.663,-0.294 0.672,-0.259 0.672,-0.217C0.672,-0.175 0.662,-0.136 0.64,-0.103C0.626,-0.08 0.609,-0.061 0.589,-0.046C0.566,-0.028 0.538,-0.016 0.507,-0.01C0.476,-0.003 0.442,-0 0.405,-0ZM0.401,-0.317L0.222,-0.317L0.222,-0.125L0.399,-0.125C0.431,-0.125 0.455,-0.129 0.473,-0.138C0.505,-0.153 0.521,-0.183 0.521,-0.228C0.521,-0.265 0.505,-0.291 0.474,-0.305C0.457,-0.313 0.433,-0.317 0.401,-0.317ZM0.476,-0.454C0.496,-0.466 0.505,-0.487 0.505,-0.517C0.505,-0.551 0.492,-0.573 0.466,-0.583C0.444,-0.591 0.415,-0.595 0.38,-0.595L0.222,-0.595L0.222,-0.436L0.399,-0.436C0.431,-0.436 0.456,-0.442 0.476,-0.454Z" style="fill:white;fill-rule:nonzero;"/>
        </g>
        <g transform="matrix(100,0,0,100,205.518,0)">
            <path d="M0.657,-0.72L0.417,-0.271L0.417,-0L0.266,-0L0.266,-0.271L0.017,-0.72L0.194,-0.72L0.344,-0.406L0.487,-0.72L0.657,-0.72Z" style="fill:white;fill-rule:nonzero;"/>
        </g>
        <g transform="matrix(100,0,0,100,272.217,0)">
            <path d="M0.599,-0.72L0.599,-0.592L0.384,-0.592L0.384,-0L0.232,-0L0.232,-0.592L0.016,-0.592L0.016,-0.72L0.599,-0.72Z" style="fill:white;fill-rule:nonzero;"/>
        </g>
        <g transform="matrix(100,0,0,100,333.301,0)">
            <path d="M0.577,-0.314L0.228,-0.314L0.228,-0.129L0.626,-0.129L0.626,-0L0.081,-0L0.081,-0.72L0.608,-0.72L0.608,-0.592L0.228,-0.592L0.228,-0.439L0.577,-0.439L0.577,-0.314Z" style="fill:white;fill-rule:nonzero;"/>
        </g>
    </g>
    <path d="M27.19,55.78C27.32,55.64 27.19,55.52 27.19,55.4C26.93,54.04 26.71,52.68 26.57,51.3C26.179,48.051 26.331,44.759 27.02,41.56C27.386,39.891 27.992,38.284 28.82,36.79C29.867,34.86 31.392,33.231 33.25,32.06C34.851,31.061 36.648,30.42 38.52,30.18C41.2,29.856 43.917,30.056 46.52,30.77C48.653,31.333 50.724,32.11 52.7,33.09L53.28,33.35C53.43,33.17 53.28,33.09 53.21,33C52.53,32 51.8,31.14 51.16,30.16C49.296,27.394 47.963,24.304 47.23,21.05C46.781,19.107 46.629,17.108 46.78,15.12C46.98,11.43 48.549,7.945 51.18,5.35C53.15,3.447 55.584,2.092 58.24,1.42C60.674,0.792 63.197,0.586 65.7,0.81C69.779,1.198 73.736,2.413 77.33,4.38C78.1,4.78 78.84,5.23 79.58,5.67C79.928,5.889 80.296,6.073 80.68,6.22C87.869,8.949 94.473,13.022 100.14,18.22C109.68,26.89 116.407,38.223 119.45,50.75C120.181,53.708 120.689,56.716 120.97,59.75C121.12,61.34 121.2,62.93 121.24,64.53C121.297,66.715 121.233,68.902 121.05,71.08C120.463,78.357 118.577,85.469 115.48,92.08C109.998,103.909 100.746,113.593 89.18,119.61C80.506,124.119 70.834,126.372 61.06,126.16C52.493,126.028 44.054,124.049 36.32,120.36C24.088,114.618 14.01,105.109 7.57,93.23C7.288,92.793 7.069,92.318 6.92,91.82C6.869,91.679 6.791,91.55 6.69,91.44C3.791,87.457 1.801,82.886 0.86,78.05C0.379,75.809 0.091,73.53 0,71.24C-0.172,67.532 0.239,63.82 1.22,60.24C1.78,58.172 2.607,56.185 3.68,54.33C4.572,52.768 5.71,51.36 7.05,50.16C8.506,48.822 10.29,47.89 12.22,47.46C14.134,47.053 16.124,47.195 17.96,47.87C19.883,48.553 21.649,49.617 23.15,51C24.534,52.276 25.757,53.716 26.79,55.29C26.91,55.46 27,55.67 27.19,55.78Z" style="fill:rgb(127,127,127);fill-rule:nonzero;"/>
    <path d="M62.55,114.88C58.649,114.893 54.781,114.167 51.15,112.74C44.162,110.008 38.688,104.381 36.15,97.32C35.289,95.032 34.711,92.648 34.43,90.22C34.152,88.008 34.088,85.774 34.24,83.55C34.482,79.924 35.191,76.344 36.35,72.9C38.425,66.702 41.678,60.963 45.93,56C50.619,50.416 56.437,45.887 63,42.71C66.306,41.098 69.804,39.915 73.41,39.19C76.37,38.587 79.393,38.358 82.41,38.51C86.744,38.692 90.983,39.837 94.82,41.86C100.085,44.653 104.223,49.185 106.53,54.68C107.67,57.332 108.424,60.134 108.77,63C109.048,65.256 109.112,67.532 108.96,69.8C108.71,73.53 107.96,77.21 106.73,80.74C104.727,86.576 101.677,91.998 97.73,96.74C93.382,102.075 88.018,106.494 81.95,109.74C78.278,111.706 74.345,113.14 70.27,114C68.474,114.382 66.653,114.629 64.82,114.74L62.55,114.88Z" style="fill:rgb(254,49,50);fill-rule:nonzero;"/>
    <path d="M20.57,52.68C20.542,51.709 20.688,50.74 21,49.82C21.231,49.134 21.618,48.511 22.13,48C22.843,47.238 23.918,46.924 24.93,47.18C25.537,47.326 26.111,47.588 26.62,47.95C27.126,48.302 27.589,48.711 28,49.17C28.827,50.143 29.477,51.253 29.92,52.45C30.561,54.108 30.83,55.887 30.71,57.66C30.664,58.462 30.491,59.252 30.2,60C30.013,60.486 29.742,60.936 29.4,61.33C28.593,62.345 27.228,62.746 26,62.33C25.359,62.116 24.768,61.776 24.26,61.33C23.519,60.702 22.887,59.955 22.39,59.12C21.203,57.182 20.573,54.953 20.57,52.68Z" style="fill:white;fill-rule:nonzero;"/>
    <path d="M62.57,25C60.009,24.97 57.593,23.786 56,21.78C55.507,21.206 55.163,20.519 55,19.78C54.601,18.323 55.361,16.781 56.76,16.21C57.467,15.915 58.237,15.798 59,15.87C60.847,15.917 62.635,16.532 64.12,17.63C64.8,18.128 65.389,18.741 65.86,19.44C66.248,19.991 66.504,20.624 66.61,21.29C66.858,22.452 66.353,23.653 65.35,24.29C64.699,24.724 63.942,24.973 63.16,25.01C62.963,25.017 62.766,25.014 62.57,25Z" style="fill:white;fill-rule:nonzero;"/>
    <path d="M8.72,49.49C8.728,48.102 8.972,46.726 9.44,45.42C9.658,44.737 10.031,44.114 10.53,43.6C10.664,43.46 10.807,43.329 10.96,43.21C11.53,42.712 12.39,42.712 12.96,43.21C13.344,43.531 13.652,43.934 13.86,44.39C14.25,45.212 14.497,46.095 14.59,47C14.86,48.781 14.74,50.6 14.24,52.33C14.061,52.975 13.791,53.591 13.44,54.16C13.223,54.545 12.935,54.884 12.59,55.16C11.946,55.666 11.011,55.596 10.45,55C10.082,54.663 9.786,54.255 9.58,53.8C9.241,53.075 9.015,52.303 8.91,51.51C8.83,50.87 8.79,50.18 8.72,49.49Z" style="fill:white;fill-rule:nonzero;"/>
    <path d="M42.43,28.8C41.824,28.79 41.224,28.672 40.66,28.45C39.126,27.873 37.816,26.822 36.92,25.45C36.481,24.806 36.206,24.065 36.12,23.29C35.911,21.928 36.851,20.634 38.21,20.41C39.023,20.262 39.86,20.327 40.64,20.6C42.28,21.106 43.695,22.167 44.64,23.6C45.049,24.201 45.322,24.883 45.44,25.6C45.476,25.772 45.494,25.948 45.494,26.124C45.494,27.479 44.423,28.613 43.07,28.69L42.43,28.8Z" style="fill:white;fill-rule:nonzero;"/>
    <path d="M46.66,43.08C46.287,43.034 45.916,42.967 45.55,42.88C43.898,42.448 42.469,41.409 41.55,39.97C41.2,39.448 40.987,38.846 40.93,38.22C40.775,37.144 41.488,36.119 42.55,35.89C43.36,35.689 44.211,35.727 45,36C46.382,36.407 47.602,37.236 48.49,38.37C48.965,38.946 49.286,39.635 49.42,40.37C49.449,40.514 49.464,40.661 49.464,40.809C49.464,41.913 48.636,42.857 47.54,43C47.28,43.05 47,43.05 46.66,43.08Z" style="fill:white;fill-rule:nonzero;"/>
    <path d="M22.69,35.4C22.704,35.793 22.625,36.183 22.46,36.54C22.222,37.119 21.607,37.458 20.99,37.35C20.715,37.315 20.448,37.233 20.2,37.11C19.91,36.963 19.641,36.778 19.4,36.56C18.274,35.533 17.626,34.083 17.61,32.56C17.611,32.303 17.648,32.047 17.72,31.8C17.877,31.145 18.467,30.68 19.14,30.68C19.339,30.68 19.537,30.721 19.72,30.8C19.945,30.868 20.158,30.973 20.35,31.11C21.74,32.11 22.602,33.69 22.69,35.4Z" style="fill:white;fill-rule:nonzero;"/>
    <path d="M15.7,65.4C15.727,66.08 15.625,66.758 15.4,67.4C15.282,67.755 15.113,68.092 14.9,68.4C14.709,68.729 14.356,68.932 13.975,68.932C13.594,68.932 13.241,68.729 13.05,68.4C12.837,68.129 12.662,67.829 12.53,67.51C12.208,66.714 12.058,65.858 12.09,65C12.095,64.319 12.214,63.643 12.44,63C12.572,62.624 12.787,62.282 13.07,62C13.259,61.748 13.555,61.6 13.87,61.6C14.185,61.6 14.481,61.748 14.67,62C14.925,62.263 15.122,62.577 15.25,62.92C15.572,63.706 15.726,64.551 15.7,65.4Z" style="fill:white;fill-rule:nonzero;"/>
    <path d="M56.23,12.86C55.544,12.857 54.877,12.64 54.32,12.24C53.965,11.99 53.691,11.643 53.53,11.24C53.251,10.573 53.519,9.794 54.15,9.44C54.415,9.286 54.702,9.171 55,9.1C56.109,8.907 57.238,9.342 57.93,10.23C58.162,10.507 58.289,10.857 58.289,11.219C58.289,11.905 57.83,12.512 57.17,12.7C57.028,12.752 56.88,12.789 56.73,12.81C56.52,12.84 56.32,12.85 56.23,12.86Z" style="fill:white;fill-rule:nonzero;"/>
    <path d="M40.66,15.56C40.66,14.73 41.03,14.31 41.71,14.24L42.16,14.24C43.289,14.452 44.209,15.28 44.54,16.38C44.584,16.502 44.606,16.631 44.606,16.761C44.606,17.381 44.096,17.891 43.476,17.891C43.458,17.891 43.439,17.891 43.42,17.89C43.138,17.9 42.857,17.859 42.59,17.77C41.827,17.504 41.203,16.942 40.86,16.21C40.778,15.998 40.711,15.781 40.66,15.56Z" style="fill:white;fill-rule:nonzero;"/>
    <path d="M2.69,86L2.92,86.2C3.24,86.61 3.56,87.02 3.86,87.44C4.604,88.53 5.523,89.489 6.58,90.28C7.137,90.696 7.75,91.033 8.4,91.28C9.882,91.865 11.539,91.837 13,91.2C14.487,90.539 15.801,89.543 16.84,88.29C17.793,87.142 18.615,85.891 19.29,84.56C20.022,83.137 20.66,81.667 21.2,80.16C22.091,77.677 22.76,75.121 23.2,72.52C23.31,71.92 23.41,71.33 23.52,70.74C23.549,70.601 23.586,70.465 23.63,70.33C23.72,70.58 23.78,70.73 23.83,70.89C24.516,73.281 25.413,75.607 26.51,77.84C27.533,79.97 28.699,82.028 30,84C31.444,86.131 33.063,88.138 34.84,90C35.987,91.208 37.221,92.33 38.53,93.36C39.96,94.513 41.489,95.537 43.1,96.42C44.073,96.94 45.075,97.404 46.1,97.81C47.805,98.492 49.589,98.959 51.41,99.2C55.193,99.753 59.05,98.902 62.25,96.81C63.787,95.773 65.14,94.485 66.25,93C67.905,90.804 69.127,88.313 69.85,85.66C70.428,83.644 70.79,81.573 70.93,79.48C71.025,77.925 71.025,76.365 70.93,74.81C70.706,70.685 69.916,66.61 68.58,62.7C68.14,61.41 67.58,60.15 67.14,58.88C67.08,58.7 67.01,58.52 66.93,58.29C67.091,58.293 67.245,58.357 67.36,58.47C68.274,59.12 69.233,59.705 70.23,60.22C72.295,61.313 74.554,61.993 76.88,62.22C81.016,62.708 85.096,60.855 87.45,57.42C88.634,55.783 89.514,53.948 90.05,52C90.549,50.316 90.884,48.588 91.05,46.84C91.17,45.51 91.26,44.18 91.27,42.84C91.27,41.89 91.2,40.94 91.12,39.99C90.822,36.827 90.237,33.697 89.37,30.64C88.383,27.172 87.087,23.798 85.5,20.56C83.939,17.302 82.064,14.203 79.9,11.31C77.939,8.667 75.684,6.255 73.18,4.12C71.427,2.612 69.5,1.32 67.44,0.27C67.35,0.22 67.27,0.16 67.18,0.12C67.09,0.08 67.33,0 67.4,0C69.08,0.1 70.76,0.23 72.4,0.48C73.73,0.67 75.06,0.81 76.4,1.13C77.4,1.36 78.4,1.52 79.32,1.75C80.24,1.98 81.11,2.21 82,2.46C82.89,2.71 83.7,2.96 84.54,3.25C85.38,3.54 86.44,3.95 87.39,4.25C88.91,4.81 90.39,5.48 91.85,6.16C92.61,6.52 93.35,6.92 94.1,7.31C94.85,7.7 95.62,8.13 96.37,8.56C96.97,8.9 97.56,9.26 98.14,9.63C98.72,10 99.57,10.52 100.27,11C101.51,11.85 102.75,12.72 103.92,13.68C105.09,14.64 106.02,15.41 107.05,16.29C108.393,17.449 109.665,18.688 110.86,20C111.72,20.94 112.57,21.88 113.41,22.84C114.447,24.029 115.422,25.27 116.33,26.56C117.04,27.56 117.76,28.56 118.42,29.56C119.385,31.04 120.273,32.568 121.08,34.14C121.47,34.91 121.9,35.67 122.27,36.45C122.64,37.23 123.09,38.26 123.47,39.17C123.85,40.08 124.21,40.92 124.55,41.81C125.04,43.12 125.55,44.45 125.88,45.81C126.19,46.91 126.51,48.01 126.8,49.11C126.98,49.78 127.12,50.46 127.25,51.11C127.657,53.11 127.99,55.157 128.25,57.25C128.62,60.493 128.74,63.759 128.61,67.02C128.507,69.364 128.28,71.7 127.93,74.02C127.67,75.88 127.28,77.72 126.86,79.55C126.53,80.95 126.1,82.33 125.69,83.72C125.17,85.46 124.53,87.16 123.86,88.84C123.54,89.64 123.17,90.43 122.86,91.21C122.55,91.99 122.11,92.81 121.71,93.6C121.31,94.39 120.83,95.28 120.37,96.12C119.51,97.67 118.58,99.12 117.58,100.64C116.74,101.89 115.83,103.1 114.9,104.29C113.76,105.73 112.567,107.12 111.32,108.46C110.18,109.7 108.979,110.881 107.72,112C106.66,113 105.59,113.89 104.48,114.78C103.37,115.67 102.09,116.63 100.84,117.48C99.84,118.2 98.73,118.9 97.64,119.56C96.55,120.22 95.53,120.82 94.43,121.37C93.65,121.76 92.9,122.18 92.12,122.56C91.34,122.94 90.52,123.31 89.71,123.66C88.53,124.14 87.35,124.66 86.15,125.06C84.6,125.64 83.01,126.15 81.41,126.58C79.81,127.01 78.06,127.41 76.41,127.75C74.54,128.12 72.66,128.37 70.77,128.59C68.083,128.871 65.381,128.978 62.68,128.91C59.894,128.847 57.115,128.603 54.36,128.18C52.75,127.95 51.16,127.63 49.59,127.26C47.64,126.81 45.69,126.33 43.78,125.69C42.78,125.36 41.78,124.99 40.78,124.6C39.34,124.03 37.9,123.44 36.48,122.82C35.65,122.45 34.84,122.04 34.04,121.62C33.24,121.2 32.59,120.85 31.87,120.46C31.32,120.15 30.78,119.84 30.25,119.52C29.47,119.05 28.7,118.58 27.94,118.08C27.18,117.58 26.37,117.08 25.59,116.47C24.81,115.86 24,115.51 23.28,115C22.56,114.49 21.85,113.88 21.16,113.3C20.16,112.44 19.16,111.54 18.16,110.61C17.04,109.51 15.9,108.42 14.89,107.21C14.71,106.99 14.49,106.81 14.31,106.6C13.84,106.06 13.38,105.52 12.92,104.97C12.61,104.59 12.31,104.18 11.99,103.81C11.232,102.893 10.531,101.932 9.89,100.93C9.73,100.7 9.54,100.49 9.39,100.26C8.87,99.46 8.39,98.65 7.87,97.85C7.56,97.36 7.22,96.85 6.93,96.38C6.49,95.61 6.08,94.82 5.67,94.04C5.12,93.04 4.55,91.94 4.1,90.84C3.86,90.27 3.61,89.69 3.38,89.11C3.052,88.217 2.817,87.292 2.68,86.35C2.69,86.2 2.69,86.1 2.69,86Z" style="fill:white;fill-rule:nonzero;"/>
</svg>
