<?xml version="1.0" encoding="UTF-8" standalone="no"?>
<!DOCTYPE svg PUBLIC "-//W3C//DTD SVG 1.1//EN" "http://www.w3.org/Graphics/SVG/1.1/DTD/svg11.dtd">
<svg width="100%" height="100%" viewBox="0 0 546 129" version="1.1" xmlns="http://www.w3.org/2000/svg" xmlns:xlink="http://www.w3.org/1999/xlink" xml:space="preserve" xmlns:serif="http://www.serif.com/" style="fill-rule:evenodd;clip-rule:evenodd;stroke-linejoin:round;stroke-miterlimit:2;">
    <g transform="matrix(1,0,0,1,149.8,100.07)">
        <g transform="matrix(100,0,0,100,0,0)">
            <path d="M0.382,-0.282L0.227,-0.282L0.227,-0L0.08,-0L0.08,-0.72L0.433,-0.72C0.483,-0.719 0.522,-0.713 0.549,-0.701C0.576,-0.69 0.599,-0.673 0.618,-0.651C0.634,-0.633 0.646,-0.612 0.655,-0.59C0.664,-0.568 0.669,-0.543 0.669,-0.515C0.669,-0.48 0.66,-0.447 0.643,-0.414C0.626,-0.381 0.597,-0.357 0.558,-0.344C0.591,-0.33 0.614,-0.311 0.628,-0.287C0.642,-0.262 0.649,-0.225 0.649,-0.174L0.649,-0.126C0.649,-0.093 0.65,-0.071 0.653,-0.059C0.657,-0.041 0.666,-0.027 0.68,-0.018L0.68,-0L0.515,-0C0.51,-0.016 0.507,-0.029 0.505,-0.039C0.501,-0.059 0.499,-0.079 0.499,-0.101L0.498,-0.167C0.497,-0.213 0.489,-0.244 0.472,-0.259C0.456,-0.275 0.426,-0.282 0.382,-0.282ZM0.473,-0.413C0.503,-0.427 0.518,-0.454 0.518,-0.494C0.518,-0.538 0.504,-0.567 0.475,-0.582C0.458,-0.59 0.434,-0.595 0.401,-0.595L0.227,-0.595L0.227,-0.401L0.397,-0.401C0.431,-0.401 0.456,-0.405 0.473,-0.413Z" style="fill:rgb(41,46,59);fill-rule:nonzero;"/>
        </g>
        <g transform="matrix(100,0,0,100,72.2168,0)">
            <path d="M0.599,-0.72L0.599,-0.592L0.384,-0.592L0.384,-0L0.232,-0L0.232,-0.592L0.016,-0.592L0.016,-0.72L0.599,-0.72Z" style="fill:rgb(41,46,59);fill-rule:nonzero;"/>
        </g>
        <g transform="matrix(100,0,0,100,133.301,0)">
            <path d="M0.405,-0L0.079,-0L0.079,-0.72L0.428,-0.72C0.516,-0.718 0.579,-0.693 0.616,-0.643C0.638,-0.612 0.649,-0.576 0.649,-0.533C0.649,-0.489 0.638,-0.454 0.616,-0.427C0.603,-0.412 0.585,-0.399 0.561,-0.386C0.598,-0.373 0.626,-0.352 0.644,-0.323C0.663,-0.294 0.672,-0.259 0.672,-0.217C0.672,-0.175 0.662,-0.136 0.64,-0.103C0.626,-0.08 0.609,-0.061 0.589,-0.046C0.566,-0.028 0.538,-0.016 0.507,-0.01C0.476,-0.003 0.442,-0 0.405,-0ZM0.401,-0.317L0.222,-0.317L0.222,-0.125L0.399,-0.125C0.431,-0.125 0.455,-0.129 0.473,-0.138C0.505,-0.153 0.521,-0.183 0.521,-0.228C0.521,-0.265 0.505,-0.291 0.474,-0.305C0.457,-0.313 0.433,-0.317 0.401,-0.317ZM0.476,-0.454C0.496,-0.466 0.505,-0.487 0.505,-0.517C0.505,-0.551 0.492,-0.573 0.466,-0.583C0.444,-0.591 0.415,-0.595 0.38,-0.595L0.222,-0.595L0.222,-0.436L0.399,-0.436C0.431,-0.436 0.456,-0.442 0.476,-0.454Z" style="fill:rgb(41,46,59);fill-rule:nonzero;"/>
        </g>
        <g transform="matrix(100,0,0,100,205.518,0)">
            <path d="M0.657,-0.72L0.417,-0.271L0.417,-0L0.266,-0L0.266,-0.271L0.017,-0.72L0.194,-0.72L0.344,-0.406L0.487,-0.72L0.657,-0.72Z" style="fill:rgb(41,46,59);fill-rule:nonzero;"/>
        </g>
        <g transform="matrix(100,0,0,100,272.217,0)">
            <path d="M0.599,-0.72L0.599,-0.592L0.384,-0.592L0.384,-0L0.232,-0L0.232,-0.592L0.016,-0.592L0.016,-0.72L0.599,-0.72Z" style="fill:rgb(41,46,59);fill-rule:nonzero;"/>
        </g>
        <g transform="matrix(100,0,0,100,333.301,0)">
            <path d="M0.577,-0.314L0.228,-0.314L0.228,-0.129L0.626,-0.129L0.626,-0L0.081,-0L0.081,-0.72L0.608,-0.72L0.608,-0.592L0.228,-0.592L0.228,-0.439L0.577,-0.439L0.577,-0.314Z" style="fill:rgb(41,46,59);fill-rule:nonzero;"/>
        </g>
    </g>
    <path d="M27.23,55.78C27.36,55.64 27.23,55.52 27.23,55.4C26.97,54.04 26.75,52.68 26.61,51.3C26.219,48.051 26.371,44.759 27.06,41.56C27.421,39.89 28.028,38.282 28.86,36.79C29.904,34.858 31.43,33.228 33.29,32.06C34.891,31.061 36.688,30.42 38.56,30.18C41.24,29.861 43.956,30.061 46.56,30.77C48.693,31.333 50.764,32.11 52.74,33.09L53.32,33.35C53.47,33.17 53.32,33.09 53.25,33C52.57,32 51.84,31.14 51.25,30.16C49.384,27.395 48.051,24.305 47.32,21.05C46.871,19.108 46.719,17.108 46.87,15.12C47.072,11.431 48.641,7.946 51.27,5.35C53.24,3.447 55.674,2.092 58.33,1.42C60.747,0.798 63.253,0.591 65.74,0.81C69.819,1.198 73.776,2.413 77.37,4.38C78.14,4.78 78.88,5.23 79.62,5.67C79.968,5.889 80.336,6.073 80.72,6.22C87.909,8.949 94.513,13.022 100.18,18.22C109.718,26.892 116.445,38.224 119.49,50.75C120.22,53.708 120.729,56.716 121.01,59.75C121.16,61.34 121.24,62.93 121.28,64.53C121.332,66.715 121.268,68.902 121.09,71.08C120.504,78.357 118.617,85.469 115.52,92.08C110.038,103.909 100.786,113.593 89.22,119.61C80.545,124.117 70.874,126.37 61.1,126.16C52.532,126.03 44.093,124.051 36.36,120.36C24.126,114.621 14.048,105.111 7.61,93.23C7.343,92.79 7.138,92.316 7,91.82C6.949,91.679 6.871,91.55 6.77,91.44C3.855,87.461 1.851,82.89 0.9,78.05C0.405,75.81 0.104,73.532 0,71.24C-0.171,67.532 0.241,63.82 1.22,60.24C1.78,58.172 2.607,56.185 3.68,54.33C4.572,52.768 5.71,51.36 7.05,50.16C8.505,48.82 10.289,47.888 12.22,47.46C14.134,47.054 16.123,47.196 17.96,47.87C19.897,48.548 21.677,49.613 23.19,51C24.569,52.28 25.791,53.72 26.83,55.29C26.926,55.481 27.062,55.648 27.23,55.78Z" style="fill:rgb(22,26,34);fill-rule:nonzero;"/>
    <path d="M62.59,114.88C58.689,114.893 54.821,114.167 51.19,112.74C44.202,110.008 38.728,104.381 36.19,97.32C35.329,95.032 34.751,92.648 34.47,90.22C34.192,88.008 34.128,85.774 34.28,83.55C34.52,79.924 35.229,76.344 36.39,72.9C38.471,66.699 41.735,60.96 46,56C50.67,50.425 56.462,45.896 63,42.71C66.306,41.1 69.805,39.917 73.41,39.19C76.37,38.589 79.393,38.361 82.41,38.51C86.744,38.694 90.983,39.838 94.82,41.86C100.084,44.654 104.223,49.185 106.53,54.68C107.683,57.331 108.45,60.132 108.81,63C109.088,65.256 109.152,67.532 109,69.8C108.75,73.53 108,77.21 106.77,80.74C104.767,86.576 101.717,91.998 97.77,96.74C93.42,102.072 88.056,106.491 81.99,109.74C78.319,111.707 74.386,113.141 70.31,114C68.514,114.381 66.692,114.628 64.86,114.74L62.59,114.88Z" style="fill:rgb(254,49,50);fill-rule:nonzero;"/>
    <path d="M20.61,52.68C20.569,51.711 20.702,50.743 21,49.82C21.242,49.13 21.643,48.506 22.17,48C22.883,47.238 23.958,46.924 24.97,47.18C25.576,47.329 26.15,47.59 26.66,47.95C27.151,48.305 27.601,48.714 28,49.17C28.852,50.139 29.528,51.249 30,52.45C30.64,54.108 30.909,55.887 30.79,57.66C30.728,58.464 30.542,59.253 30.24,60C30.053,60.486 29.782,60.936 29.44,61.33C28.635,62.347 27.268,62.75 26.04,62.33C25.398,62.118 24.806,61.777 24.3,61.33C23.562,60.699 22.93,59.953 22.43,59.12C21.241,57.183 20.611,54.953 20.61,52.68Z" style="fill:rgb(41,46,59);fill-rule:nonzero;"/>
    <path d="M62.61,25C60.034,24.983 57.601,23.798 56,21.78C55.502,21.209 55.158,20.521 55,19.78C54.601,18.323 55.361,16.781 56.76,16.21C57.467,15.913 58.237,15.797 59,15.87C60.847,15.917 62.635,16.532 64.12,17.63C64.8,18.128 65.389,18.741 65.86,19.44C66.248,19.991 66.504,20.624 66.61,21.29C66.858,22.452 66.353,23.653 65.35,24.29C64.708,24.711 63.966,24.955 63.2,25C63.003,25.01 62.807,25.01 62.61,25Z" style="fill:rgb(41,46,59);fill-rule:nonzero;"/>
    <path d="M8.76,49.49C8.768,48.102 9.012,46.726 9.48,45.42C9.698,44.737 10.071,44.114 10.57,43.6C10.704,43.46 10.847,43.329 11,43.21C11.57,42.712 12.43,42.712 13,43.21C13.384,43.532 13.691,43.935 13.9,44.39C14.292,45.211 14.539,46.094 14.63,47C14.9,48.781 14.78,50.6 14.28,52.33C14.099,52.974 13.83,53.59 13.48,54.16C13.258,54.541 12.971,54.88 12.63,55.16C11.986,55.666 11.051,55.596 10.49,55C10.121,54.664 9.825,54.255 9.62,53.8C9.295,53.074 9.086,52.301 9,51.51C8.87,50.87 8.83,50.18 8.76,49.49Z" style="fill:rgb(41,46,59);fill-rule:nonzero;"/>
    <path d="M42.47,28.8C41.864,28.79 41.264,28.672 40.7,28.45C39.165,27.875 37.854,26.823 36.96,25.45C36.518,24.808 36.243,24.065 36.16,23.29C35.951,21.928 36.891,20.634 38.25,20.41C39.063,20.262 39.9,20.328 40.68,20.6C42.318,21.11 43.732,22.17 44.68,23.6C45.089,24.201 45.362,24.883 45.48,25.6C45.743,26.969 44.845,28.316 43.48,28.6C43.355,28.626 43.228,28.643 43.1,28.65L42.47,28.8Z" style="fill:rgb(41,46,59);fill-rule:nonzero;"/>
    <path d="M46.7,43.08C46.326,43.035 45.956,42.968 45.59,42.88C43.938,42.448 42.509,41.409 41.59,39.97C41.251,39.445 41.048,38.843 41,38.22C40.845,37.144 41.558,36.119 42.62,35.89C43.408,35.704 44.232,35.743 45,36C46.379,36.412 47.598,37.24 48.49,38.37C48.961,38.949 49.281,39.636 49.42,40.37C49.455,40.527 49.473,40.687 49.473,40.848C49.473,41.883 48.742,42.785 47.73,43L47.58,43C47.32,43.05 47,43.05 46.7,43.08Z" style="fill:rgb(41,46,59);fill-rule:nonzero;"/>
    <path d="M22.73,35.4C22.739,35.792 22.66,36.182 22.5,36.54C22.262,37.119 21.647,37.458 21.03,37.35C20.756,37.311 20.489,37.23 20.24,37.11C19.95,36.963 19.681,36.778 19.44,36.56C18.312,35.535 17.663,34.084 17.65,32.56C17.651,32.303 17.688,32.047 17.76,31.8C17.917,31.145 18.507,30.68 19.18,30.68C19.294,30.68 19.409,30.693 19.52,30.72L19.76,30.8C19.985,30.868 20.198,30.973 20.39,31.11C21.779,32.111 22.641,33.69 22.73,35.4Z" style="fill:rgb(41,46,59);fill-rule:nonzero;"/>
    <path d="M15.74,65.4C15.761,66.079 15.659,66.757 15.44,67.4C15.32,67.755 15.152,68.091 14.94,68.4C14.642,68.902 13.988,69.077 13.48,68.79C13.316,68.699 13.181,68.564 13.09,68.4C12.873,68.131 12.698,67.831 12.57,67.51C12.25,66.713 12.1,65.858 12.13,65C12.131,64.318 12.249,63.642 12.48,63C12.611,62.623 12.827,62.281 13.11,62C13.299,61.748 13.595,61.6 13.91,61.6C14.126,61.6 14.337,61.67 14.51,61.8C14.584,61.859 14.651,61.926 14.71,62C14.962,62.265 15.16,62.578 15.29,62.92C15.608,63.707 15.761,64.551 15.74,65.4Z" style="fill:rgb(41,46,59);fill-rule:nonzero;"/>
    <path d="M56.27,12.86C55.584,12.86 54.915,12.643 54.36,12.24C54.004,11.992 53.729,11.644 53.57,11.24C53.291,10.573 53.559,9.794 54.19,9.44C54.443,9.289 54.715,9.175 55,9.1C56.132,8.879 57.296,9.317 58,10.23C58.232,10.507 58.359,10.857 58.359,11.219C58.359,11.905 57.9,12.512 57.24,12.7C57.098,12.752 56.95,12.789 56.8,12.81L56.27,12.86Z" style="fill:rgb(41,46,59);fill-rule:nonzero;"/>
    <path d="M40.7,15.56C40.7,14.73 41.07,14.31 41.7,14.24L42.15,14.24C43.279,14.452 44.199,15.28 44.53,16.38C44.737,16.964 44.431,17.615 43.85,17.83C43.709,17.88 43.559,17.9 43.41,17.89C43.128,17.9 42.847,17.859 42.58,17.77C41.817,17.504 41.193,16.942 40.85,16.21C40.785,15.997 40.735,15.78 40.7,15.56Z" style="fill:rgb(41,46,59);fill-rule:nonzero;"/>
    <path d="M2.73,86L2.96,86.2C3.28,86.61 3.6,87.02 3.9,87.44C4.642,88.532 5.561,89.492 6.62,90.28C7.177,90.696 7.79,91.033 8.44,91.28C9.911,91.854 11.55,91.826 13,91.2C14.487,90.539 15.801,89.543 16.84,88.29C17.79,87.139 18.611,85.889 19.29,84.56C20.022,83.137 20.66,81.667 21.2,80.16C22.091,77.677 22.76,75.121 23.2,72.52C23.31,71.92 23.41,71.33 23.52,70.74C23.546,70.601 23.583,70.464 23.63,70.33C23.72,70.58 23.78,70.73 23.83,70.89C24.509,73.3 25.406,75.643 26.51,77.89C27.534,80.003 28.7,82.045 30,84C31.442,86.133 33.061,88.14 34.84,90C35.987,91.208 37.221,92.33 38.53,93.36C39.96,94.513 41.489,95.537 43.1,96.42C44.073,96.94 45.075,97.404 46.1,97.81C47.805,98.492 49.589,98.959 51.41,99.2C55.193,99.75 59.049,98.899 62.25,96.81C63.788,95.774 65.141,94.486 66.25,93C67.898,90.8 69.119,88.31 69.85,85.66C70.452,83.647 70.838,81.575 71,79.48C71.09,77.925 71.09,76.365 71,74.81C70.761,70.684 69.96,66.61 68.62,62.7C68.18,61.41 67.62,60.15 67.18,58.88C67.12,58.7 67.05,58.52 66.97,58.29C67.131,58.294 67.284,58.358 67.4,58.47C68.314,59.12 69.273,59.705 70.27,60.22C72.336,61.312 74.595,61.991 76.92,62.22C81.056,62.708 85.136,60.855 87.49,57.42C88.67,55.781 89.551,53.946 90.09,52C90.588,50.316 90.923,48.588 91.09,46.84C91.21,45.51 91.3,44.18 91.31,42.84C91.31,41.84 91.24,40.94 91.16,39.99C90.857,36.827 90.272,33.698 89.41,30.64C88.423,27.172 87.127,23.798 85.54,20.56C83.979,17.302 82.104,14.203 79.94,11.31C77.976,8.67 75.722,6.258 73.22,4.12C71.468,2.611 69.541,1.318 67.48,0.27C67.39,0.22 67.31,0.16 67.22,0.12C67.13,0.08 67.37,0 67.44,0C69.12,0.1 70.8,0.23 72.44,0.48C73.77,0.67 75.1,0.81 76.44,1.13C77.44,1.36 78.44,1.52 79.36,1.75C80.28,1.98 81.15,2.21 82.04,2.46C82.93,2.71 83.74,2.96 84.58,3.25C85.42,3.54 86.48,3.95 87.43,4.25C88.95,4.81 90.43,5.48 91.89,6.16C92.65,6.52 93.39,6.92 94.14,7.31C94.89,7.7 95.66,8.13 96.41,8.56C97.16,8.99 97.6,9.26 98.18,9.63C98.76,10 99.61,10.52 100.31,11C101.55,11.85 102.79,12.72 103.96,13.68C105.13,14.64 106.06,15.41 107.09,16.29C108.43,17.452 109.703,18.691 110.9,20C111.76,20.94 112.61,21.88 113.45,22.84C114.487,24.029 115.462,25.27 116.37,26.56C117.08,27.56 117.8,28.56 118.46,29.56C119.42,31.04 120.307,32.567 121.12,34.14C121.51,34.91 121.94,35.67 122.31,36.45C122.68,37.23 123.13,38.26 123.51,39.17C123.89,40.08 124.25,40.92 124.59,41.81C125.112,43.116 125.557,44.451 125.92,45.81C126.23,46.91 126.55,48.01 126.84,49.11C127.02,49.78 127.16,50.46 127.29,51.11C127.69,53.11 128.03,55.11 128.29,57.25C128.66,60.493 128.78,63.759 128.65,67.02C128.548,69.364 128.321,71.7 127.97,74.02C127.71,75.88 127.32,77.72 126.9,79.55C126.57,80.95 126.14,82.33 125.73,83.72C125.21,85.46 124.57,87.16 123.9,88.84C123.58,89.64 123.21,90.43 122.9,91.21C122.59,91.99 122.15,92.81 121.75,93.6C121.35,94.39 120.87,95.28 120.41,96.12C119.55,97.67 118.62,99.12 117.62,100.64C116.78,101.89 115.87,103.1 114.94,104.29C113.8,105.73 112.6,107.12 111.36,108.46C110.22,109.7 109.019,110.881 107.76,112C106.7,113 105.63,113.89 104.52,114.78C103.41,115.67 102.13,116.63 100.88,117.48C99.88,118.2 98.77,118.9 97.68,119.56C96.59,120.22 95.57,120.82 94.47,121.37C93.69,121.76 92.94,122.18 92.16,122.56C91.38,122.94 90.56,123.31 89.75,123.66C88.57,124.14 87.39,124.66 86.19,125.06C84.64,125.64 83.05,126.15 81.45,126.58C79.85,127.01 78.1,127.41 76.45,127.75C74.58,128.12 72.7,128.37 70.81,128.59C68.123,128.871 65.421,128.978 62.72,128.91C59.934,128.847 57.155,128.603 54.4,128.18C52.79,127.95 51.2,127.63 49.63,127.26C47.63,126.81 45.73,126.33 43.82,125.69C42.82,125.36 41.82,124.99 40.82,124.6C39.38,124.03 37.94,123.44 36.52,122.82C35.69,122.45 34.88,122.04 34.08,121.62L31.91,120.46C31.36,120.15 30.82,119.84 30.29,119.52C29.51,119.05 28.74,118.58 27.98,118.08C27.22,117.58 26.41,117.08 25.63,116.47C24.85,115.86 24.04,115.47 23.32,115C22.6,114.53 21.89,113.88 21.2,113.3C20.2,112.44 19.2,111.54 18.2,110.61C17.08,109.51 15.94,108.42 14.93,107.21C14.75,106.99 14.53,106.81 14.35,106.6C13.88,106.06 13.42,105.52 12.96,104.97C12.65,104.59 12.35,104.18 12.03,103.81C11.272,102.893 10.571,101.932 9.93,100.93C9.77,100.7 9.58,100.49 9.43,100.26C8.91,99.46 8.43,98.65 7.91,97.85C7.6,97.36 7.26,96.85 6.97,96.38C6.53,95.61 6.12,94.82 5.71,94.04C5.127,93.004 4.603,91.935 4.14,90.84C3.9,90.27 3.65,89.69 3.42,89.11C3.092,88.217 2.857,87.292 2.72,86.35C2.73,86.2 2.73,86.1 2.73,86Z" style="fill:rgb(41,46,59);fill-rule:nonzero;"/>
</svg>
