<?xml version="1.0" encoding="UTF-8" standalone="no"?>
<!DOCTYPE svg PUBLIC "-//W3C//DTD SVG 1.1//EN" "http://www.w3.org/Graphics/SVG/1.1/DTD/svg11.dtd">
<svg width="100%" height="100%" viewBox="0 0 546 130" version="1.1" xmlns="http://www.w3.org/2000/svg" xmlns:xlink="http://www.w3.org/1999/xlink" xml:space="preserve" xmlns:serif="http://www.serif.com/" style="fill-rule:evenodd;clip-rule:evenodd;stroke-linecap:round;stroke-linejoin:round;stroke-miterlimit:1.5;">
    <g>
        <clipPath id="_clip1">
            <circle cx="65.104" cy="65" r="64.104"/>
        </clipPath>
        <g clip-path="url(#_clip1)">
            <rect x="1" y="0.896" width="128.207" height="128.207" style="fill:#7289da;"/>
            <path id="Portal" d="M45.03,89.587C29.574,87.653 22.471,83.697 22.471,78.332C22.471,71.225 41.574,65.455 65.104,65.455C88.633,65.455 107.736,71.225 107.736,78.332C107.736,84.582 93.382,90.236 73.816,91.403C64.195,92.195 53.691,91.649 50.007,91.384C44.064,90.96 34.408,89.728 30.977,87.587C33.141,88.149 37.227,88.882 40.655,89.422C42.96,89.746 43.879,89.793 45.03,89.587ZM101.252,74.251C101.252,74.251 105.615,76.541 101.699,80.431C97.783,84.321 87.274,86.734 76.406,87.511C65.539,88.288 52.531,87.699 49.341,87.071C46.151,86.443 35.55,85.026 30.505,80.954C26.015,77.328 33.872,74.435 34.505,74.128C35.138,73.821 44.589,70.041 62.438,70.285C62.944,70.291 62.366,70.105 62.366,70.105C62.366,70.105 48.692,69.855 40.568,70.785C40.169,70.133 53.808,67.834 65.232,68.159C76.655,68.483 87.256,70.467 89.379,71.251C91.529,71.938 95.418,73.344 96.649,75.908C97.287,78.166 95.757,79.521 93.032,81.279C89.413,83.478 83.165,84.898 82.489,85.146C81.812,85.395 93.68,83.467 99.541,79.239C102.404,76.533 101.252,74.251 101.252,74.251Z" style="fill:#fff;"/>
            <path d="M44.005,89.58C37.645,88.72 32.763,87.505 29.263,85.983C24.586,83.948 22.37,81.355 22.373,78.332C22.374,77.025 23.006,75.761 24.188,74.571C25.935,72.811 28.892,71.208 32.768,69.852C40.597,67.115 52.184,65.383 65.104,65.393C78.021,65.398 89.603,67.142 97.428,69.886C103.889,72.152 107.788,75.111 107.788,78.332C107.789,79.723 107.087,81.085 105.778,82.376C103.858,84.269 100.627,86.01 96.4,87.461C90.518,89.48 82.708,90.941 73.822,91.477C69.82,91.809 65.665,91.91 61.912,91.896C56.637,91.877 52.154,91.63 50,91.477C46.702,91.245 42.261,90.765 38.373,90.019C35.235,89.416 32.455,88.638 30.918,87.681C30.871,87.652 30.853,87.593 30.875,87.543C30.896,87.493 30.951,87.466 31.004,87.479C31.976,87.731 33.337,88.016 34.85,88.303C36.704,88.655 38.788,89.008 40.672,89.303C41.821,89.463 42.624,89.555 43.283,89.58C43.542,89.59 43.778,89.59 44.005,89.58ZM31.779,87.898C33.369,88.665 35.761,89.301 38.412,89.815C42.291,90.566 46.722,91.053 50.013,91.291C52.165,91.447 56.643,91.702 61.912,91.73C65.662,91.75 69.812,91.655 73.81,91.33L73.812,91.329C82.685,90.806 90.487,89.359 96.362,87.349C100.571,85.91 103.79,84.182 105.703,82.299C106.989,81.033 107.683,79.698 107.684,78.332C107.684,76.716 106.686,75.172 104.87,73.748C102.327,71.755 98.185,70 92.921,68.629C85.454,66.684 75.73,65.513 65.104,65.517C54.479,65.524 44.759,66.708 37.295,68.659C32.038,70.034 27.902,71.789 25.364,73.782C23.563,75.197 22.569,76.728 22.57,78.332C22.573,81.29 24.769,83.801 29.35,85.783C33.021,87.372 38.217,88.615 45.045,89.463C45.106,89.471 45.153,89.522 45.155,89.584C45.156,89.646 45.112,89.699 45.052,89.71C44.468,89.814 43.943,89.854 43.273,89.826C42.608,89.799 41.797,89.706 40.638,89.542L40.636,89.541C38.749,89.242 36.663,88.884 34.808,88.529C33.681,88.313 32.64,88.098 31.779,87.898ZM62.546,70.23C62.472,70.192 62.366,70.155 62.366,70.155C62.366,70.155 55.937,70.037 49.277,70.265C46.226,70.369 43.126,70.546 40.574,70.839C40.553,70.842 40.532,70.832 40.521,70.814C40.493,70.767 40.497,70.714 40.55,70.658C40.642,70.56 40.934,70.436 41.4,70.302C42.889,69.873 46.189,69.291 50.271,68.828C54.768,68.318 60.214,67.952 65.233,68.092C69.542,68.211 73.734,68.567 77.399,69.006C83.459,69.731 88.078,70.684 89.406,71.172C90.714,71.589 92.662,72.271 94.271,73.316C95.327,74.002 96.237,74.845 96.73,75.869C96.732,75.874 96.734,75.878 96.735,75.883C97.039,76.956 96.866,77.831 96.317,78.64C95.69,79.564 94.562,80.404 93.083,81.359C93.083,81.36 93.082,81.36 93.081,81.361C91.9,82.08 90.439,82.717 88.981,83.257C87.15,83.937 85.324,84.463 84.073,84.809C86.051,84.427 89.55,83.616 92.981,82.365C95.349,81.503 97.685,80.431 99.464,79.146L99.469,79.142C100.299,78.354 100.784,77.603 101.054,76.936C101.68,75.389 101.14,74.307 101.14,74.307C101.116,74.259 101.125,74.2 101.164,74.162C101.203,74.124 101.262,74.115 101.31,74.14C101.31,74.14 103.368,75.229 103.45,77.174C103.489,78.099 103.085,79.223 101.782,80.515C99.888,82.393 96.466,83.931 92.206,85.103C87.621,86.365 82.066,87.207 76.413,87.606C71.981,87.919 67.193,88.005 62.86,87.955C56.559,87.881 51.218,87.518 49.327,87.144C47.304,86.745 42.304,86.026 37.627,84.515C34.918,83.64 32.318,82.5 30.466,81.002C28.838,79.687 28.807,78.464 29.463,77.422C30.636,75.559 34.069,74.275 34.48,74.076C34.918,73.864 39.566,71.995 48.285,70.94C52.19,70.468 56.912,70.158 62.439,70.234C62.48,70.235 62.517,70.233 62.546,70.23ZM62.385,70.058C62.39,70.06 62.4,70.063 62.413,70.068C62.479,70.091 62.624,70.147 62.668,70.19C62.694,70.215 62.699,70.243 62.694,70.264C62.69,70.28 62.679,70.298 62.653,70.311C62.624,70.325 62.559,70.336 62.437,70.335C56.916,70.26 52.198,70.571 48.298,71.045C39.602,72.101 34.967,73.968 34.53,74.18C34.124,74.377 30.724,75.643 29.566,77.487C28.94,78.484 28.987,79.648 30.545,80.905C32.388,82.391 34.974,83.521 37.668,84.388C42.34,85.891 47.335,86.601 49.356,86.998C51.244,87.368 56.574,87.722 62.862,87.785C67.19,87.829 71.973,87.736 76.4,87.416C82.037,87.008 87.577,86.16 92.148,84.894C96.359,83.727 99.746,82.208 101.616,80.347C102.849,79.12 103.245,78.061 103.207,77.185C103.146,75.814 102.031,74.905 101.487,74.541C101.615,75.006 101.738,75.904 101.281,77.028C100.998,77.722 100.493,78.506 99.624,79.326C99.62,79.33 99.616,79.333 99.611,79.336C97.378,80.944 94.279,82.22 91.328,83.17C87.98,84.248 84.824,84.906 83.348,85.156C82.926,85.228 82.639,85.266 82.523,85.271C82.466,85.274 82.432,85.265 82.42,85.26C82.375,85.239 82.362,85.206 82.357,85.178C82.355,85.16 82.356,85.084 82.453,85.048C82.909,84.881 85.902,84.183 88.913,83.072C90.358,82.538 91.808,81.909 92.981,81.198C94.435,80.262 95.547,79.443 96.165,78.536C96.684,77.774 96.847,76.95 96.564,75.939L96.562,75.936C96.083,74.943 95.199,74.128 94.176,73.461C92.582,72.423 90.65,71.745 89.353,71.33C89.352,71.33 89.351,71.329 89.35,71.329C88.03,70.84 83.424,69.885 77.381,69.154C73.721,68.711 69.534,68.351 65.23,68.226C60.217,68.081 54.776,68.441 50.284,68.946C46.21,69.404 42.917,69.981 41.43,70.408C41.078,70.509 40.829,70.601 40.697,70.682C40.674,70.696 40.655,70.709 40.641,70.722C43.18,70.436 46.251,70.263 49.274,70.162C55.936,69.937 62.367,70.055 62.367,70.055C62.373,70.055 62.379,70.056 62.385,70.058Z" style="fill:#006fb5;fill-opacity:0.71;"/>
            <g id="Character">
                <path d="M63.633,72.975C59.911,72.018 57.156,68.636 57.156,64.616C57.156,59.852 61.023,55.985 65.787,55.985C70.55,55.985 74.417,59.852 74.417,64.616C74.417,68.636 71.662,72.018 67.94,72.975C69.906,73.247 71.661,73.885 73.018,74.772L81.842,66.544C82.864,65.591 84.467,65.647 85.42,66.669C86.373,67.69 86.317,69.294 85.295,70.247L76.368,78.572C76.219,78.711 76.058,78.828 75.888,78.924C75.898,79.044 75.904,79.165 75.904,79.286C75.904,79.354 75.902,79.421 75.899,79.487C75.902,79.52 75.904,79.552 75.904,79.585L75.904,97.748C75.904,98.287 75.466,98.724 74.927,98.724L72.549,98.724C72.693,98.724 72.81,98.841 72.81,98.985L72.81,110.667C72.81,110.811 72.693,110.928 72.549,110.928L67.528,110.928C67.384,110.928 67.267,110.811 67.267,110.667L67.267,98.985C67.267,98.841 67.384,98.724 67.528,98.724L64.045,98.724C64.189,98.724 64.306,98.841 64.306,98.985L64.306,110.667C64.306,110.811 64.189,110.928 64.045,110.928L59.024,110.928C58.88,110.928 58.763,110.811 58.763,110.667L58.763,98.985C58.763,98.841 58.88,98.724 59.024,98.724L56.646,98.724C56.107,98.724 55.669,98.287 55.669,97.748L55.669,79.585C55.669,79.552 55.671,79.52 55.674,79.487C55.671,79.421 55.669,79.354 55.669,79.286C55.669,79.165 55.675,79.044 55.685,78.924C55.515,78.828 55.354,78.711 55.205,78.572L46.278,70.247C45.256,69.294 45.2,67.69 46.153,66.669C47.106,65.647 48.709,65.591 49.731,66.544L58.555,74.772C59.912,73.885 61.667,73.247 63.633,72.975Z" style="fill:#4e5d94;stroke:#4e5d94;stroke-width:1px;"/>
            </g>
            <g id="Trail" opacity="0.75">
                <path d="M45.542,27.628L45.542,61.538L47.566,61.538L47.566,27.628L45.542,27.628Z" style="fill:url(#_Linear2);"/>
                <path d="M84.007,27.628L84.007,61.538L86.031,61.538L86.031,27.628L84.007,27.628Z" style="fill:url(#_Linear3);"/>
                <path d="M71.86,14.975L71.86,48.885L73.884,48.885L73.884,14.975L71.86,14.975Z" style="fill:url(#_Linear4);"/>
                <path d="M57.689,14.975L57.689,48.885L59.713,48.885L59.713,14.975L57.689,14.975Z" style="fill:url(#_Linear5);"/>
            </g>
            <path d="M107.725,78.635L129.207,78.635L129.207,129.104L1,129.104L1,78.635L22.479,78.635C22.743,83.846 29.866,87.689 45.03,89.587C43.879,89.793 42.96,89.746 40.655,89.422C37.227,88.882 33.141,88.149 30.977,87.587C34.408,89.728 44.064,90.96 50.007,91.384C53.691,91.649 64.195,92.195 73.816,91.403C93.065,90.255 107.27,84.764 107.725,78.635Z" style="fill:#7289da;"/>
            <path id="Portal1" serif:id="Portal" d="M107.725,78.635C107.27,84.764 93.065,90.255 73.816,91.403C64.195,92.195 53.691,91.649 50.007,91.384C44.064,90.96 34.408,89.728 30.977,87.587C33.141,88.149 37.227,88.882 40.655,89.422C42.96,89.746 43.879,89.793 45.03,89.587C29.866,87.689 22.743,83.846 22.479,78.635L29.127,78.635C29.109,79.356 29.493,80.136 30.505,80.954C35.55,85.026 46.151,86.443 49.341,87.071C52.531,87.699 65.539,88.288 76.406,87.511C87.274,86.734 97.783,84.321 101.699,80.431C102.347,79.788 102.768,79.188 103.02,78.635L107.725,78.635ZM100.122,78.635C99.95,78.833 99.757,79.035 99.541,79.239C93.68,83.467 81.812,85.395 82.489,85.146C83.165,84.898 89.413,83.478 93.032,81.279C94.473,80.349 95.58,79.532 96.209,78.635L100.122,78.635Z" style="fill:#fff;"/>
        </g>
    </g>
    <path d="M181.824,99.32C192.728,99.32 201.094,94.244 201.094,83.058L201.094,82.87C201.094,73.658 192.916,70.274 185.866,67.924C180.414,66.044 175.62,64.728 175.62,61.908L175.62,61.72C175.62,59.746 177.406,58.242 180.884,58.242C184.55,58.242 189.532,60.028 194.514,62.942L199.966,53.072C194.514,49.406 187.558,47.244 181.166,47.244C171.014,47.244 162.742,52.978 162.742,63.224L162.742,63.412C162.742,73.188 170.732,76.478 177.782,78.546C183.328,80.238 188.216,81.272 188.216,84.374L188.216,84.562C188.216,86.818 186.336,88.322 182.2,88.322C177.5,88.322 171.766,86.254 166.314,82.306L160.204,91.706C166.878,96.97 174.774,99.32 181.824,99.32Z" style="fill:#fff;fill-rule:nonzero;"/>
    <path d="M227.414,99.226C232.208,99.226 235.686,98.098 238.694,96.312L238.694,84.844C236.626,85.972 234.276,86.63 231.644,86.63C228.448,86.63 227.038,85.032 227.038,81.742L227.038,60.216L238.882,60.216L238.882,47.996L227.038,47.996L227.038,35.118L212.75,35.118L212.75,47.996L206.734,47.996L206.734,60.216L212.75,60.216L212.75,84.092C212.75,95.748 218.672,99.226 227.414,99.226Z" style="fill:#fff;fill-rule:nonzero;"/>
    <path d="M249.692,42.45L264.732,42.45L264.732,29.76L249.692,29.76L249.692,42.45ZM250.068,98.38L264.356,98.38L264.356,47.996L250.068,47.996L250.068,98.38Z" style="fill:#fff;fill-rule:nonzero;"/>
    <path d="M301.58,99.508C311.638,99.508 317.278,95.654 322.166,90.296L313.8,81.836C310.322,85.126 307.032,87.194 302.238,87.194C294.436,87.194 289.454,80.99 289.454,73.282L289.454,73.094C289.454,65.668 294.53,59.37 301.674,59.37C306.75,59.37 309.946,61.532 313.142,64.916L321.884,55.516C317.184,50.252 311.262,47.056 301.768,47.056C286.352,47.056 275.354,58.9 275.354,73.282L275.354,73.47C275.354,87.852 286.446,99.508 301.58,99.508Z" style="fill:#fff;fill-rule:nonzero;"/>
    <path d="M331.472,98.38L345.76,98.38L345.76,83.058L350.742,77.794L363.902,98.38L380.258,98.38L360.424,67.83L379.6,47.996L362.492,47.996L345.76,66.326L345.76,29.76L331.472,29.76L331.472,98.38Z" style="fill:#fff;fill-rule:nonzero;"/>
    <path d="M417.106,99.32C429.044,99.32 440.042,90.108 440.042,73.282L440.042,73.094C440.042,56.268 428.856,47.056 417.106,47.056C409.68,47.056 404.886,50.534 401.408,55.234L401.408,29.76L387.12,29.76L387.12,98.38L401.408,98.38L401.408,91.8C404.792,95.842 409.492,99.32 417.106,99.32ZM413.44,87.194C406.766,87.194 401.22,81.648 401.22,73.282L401.22,73.094C401.22,64.728 406.766,59.182 413.44,59.182C420.114,59.182 425.754,64.728 425.754,73.094L425.754,73.282C425.754,81.742 420.114,87.194 413.44,87.194Z" style="fill:#fff;fill-rule:nonzero;"/>
    <path d="M475.292,99.508C490.99,99.508 502.646,87.758 502.646,73.282L502.646,73.094C502.646,58.618 491.084,47.056 475.48,47.056C459.782,47.056 448.126,58.806 448.126,73.282L448.126,73.47C448.126,87.946 459.688,99.508 475.292,99.508ZM475.48,87.194C467.584,87.194 462.226,80.708 462.226,73.282L462.226,73.094C462.226,65.668 467.114,59.37 475.292,59.37C483.188,59.37 488.546,65.856 488.546,73.282L488.546,73.47C488.546,80.896 483.658,87.194 475.48,87.194Z" style="fill:#fff;fill-rule:nonzero;"/>
    <path d="M530,99.226C534.794,99.226 538.272,98.098 541.28,96.312L541.28,84.844C539.212,85.972 536.862,86.63 534.23,86.63C531.034,86.63 529.624,85.032 529.624,81.742L529.624,60.216L541.468,60.216L541.468,47.996L529.624,47.996L529.624,35.118L515.336,35.118L515.336,47.996L509.32,47.996L509.32,60.216L515.336,60.216L515.336,84.092C515.336,95.748 521.258,99.226 530,99.226Z" style="fill:#fff;fill-rule:nonzero;"/>
    <defs>
        <linearGradient id="_Linear2" x1="0" y1="0" x2="1" y2="0" gradientUnits="userSpaceOnUse" gradientTransform="matrix(2.0764e-15,-33.9102,2.02449,1.23964e-16,46.5539,61.5377)"><stop offset="0" style="stop-color:#000;stop-opacity:1"/><stop offset="0.57" style="stop-color:#000;stop-opacity:0.31"/><stop offset="1" style="stop-color:#000;stop-opacity:0"/></linearGradient>
        <linearGradient id="_Linear3" x1="0" y1="0" x2="1" y2="0" gradientUnits="userSpaceOnUse" gradientTransform="matrix(2.0764e-15,-33.9102,2.02449,1.23964e-16,85.0191,61.5377)"><stop offset="0" style="stop-color:#000;stop-opacity:1"/><stop offset="0.57" style="stop-color:#000;stop-opacity:0.31"/><stop offset="1" style="stop-color:#000;stop-opacity:0"/></linearGradient>
        <linearGradient id="_Linear4" x1="0" y1="0" x2="1" y2="0" gradientUnits="userSpaceOnUse" gradientTransform="matrix(2.0764e-15,-33.9102,2.02449,1.23964e-16,72.8722,48.8847)"><stop offset="0" style="stop-color:#000;stop-opacity:1"/><stop offset="0.57" style="stop-color:#000;stop-opacity:0.31"/><stop offset="1" style="stop-color:#000;stop-opacity:0"/></linearGradient>
        <linearGradient id="_Linear5" x1="0" y1="0" x2="1" y2="0" gradientUnits="userSpaceOnUse" gradientTransform="matrix(2.0764e-15,-33.9102,2.02449,1.23964e-16,58.7008,48.8847)"><stop offset="0" style="stop-color:#000;stop-opacity:1"/><stop offset="0.57" style="stop-color:#000;stop-opacity:0.31"/><stop offset="1" style="stop-color:#000;stop-opacity:0"/></linearGradient>
    </defs>
</svg>
