<?xml version="1.0" standalone="no"?>
<!DOCTYPE svg PUBLIC "-//W3C//DTD SVG 20010904//EN"
 "http://www.w3.org/TR/2001/REC-SVG-20010904/DTD/svg10.dtd">
<svg version="1.0" xmlns="http://www.w3.org/2000/svg"
 width="512.000000pt" height="512.000000pt" viewBox="0 0 512.000000 512.000000"
 preserveAspectRatio="xMidYMid meet">
<metadata>
Created by potrace 1.14, written by Peter Selinger 2001-2017
</metadata>
<g transform="translate(0.000000,512.000000) scale(0.100000,-0.100000)"
fill="#000000" stroke="none">
<path d="M2304 4201 c4 -5 -2 -7 -12 -4 -17 4 -19 -5 -25 -109 -4 -62 -7 -287
-7 -500 l0 -388 47 0 46 0 -6 496 c-4 399 -8 498 -19 505 -17 11 -31 11 -24 0z"/>
<path d="M2834 4201 c-2 -2 -4 -229 -4 -503 l0 -498 40 0 40 0 -2 502 -3 501
-33 1 c-19 1 -36 -1 -38 -3z"/>
<path d="M1830 3696 c0 -9 -5 -16 -11 -16 -5 0 -7 6 -3 13 6 9 5 9 -8 0 -8 -7
-18 -10 -21 -6 -4 3 -7 -219 -7 -495 l0 -502 40 0 40 0 0 496 c0 427 -2 497
-15 510 -13 14 -15 14 -15 0z"/>
<path d="M3315 3465 c-3 -126 -5 -351 -3 -500 l3 -270 40 0 40 0 3 310 c2 171
0 396 -3 502 l-7 192 -33 -2 -33 -2 -7 -230z"/>
<path d="M2458 2897 c-67 -28 -103 -56 -148 -115 -66 -86 -85 -190 -53 -293
19 -60 20 -65 22 -78 3 -24 111 -126 153 -146 l46 -21 -44 -12 c-24 -7 -64
-21 -89 -33 l-45 -21 -39 33 c-21 19 -107 96 -190 172 -96 88 -161 139 -179
143 -65 13 -121 -49 -109 -123 5 -30 26 -55 119 -144 62 -60 150 -141 195
-181 l82 -73 0 -172 1 -171 118 -7 c121 -8 677 1 693 11 5 3 9 80 9 172 l0
167 180 165 c196 181 227 222 210 279 -13 46 -36 69 -75 77 -30 5 -71 -7 -85
-26 -3 -3 -54 -51 -115 -105 -60 -54 -138 -125 -171 -158 l-62 -59 -63 25
c-35 14 -77 29 -92 33 -29 7 -28 7 25 36 95 52 138 111 171 242 38 142 -44
305 -188 375 -75 37 -199 40 -277 8z"/>
</g>
</svg>
